<?xml version="1.0" encoding="UTF-8"?>
<svg width="52px" height="51px" viewBox="0 0 52 51" version="1.1" xmlns="http://www.w3.org/2000/svg" xmlns:xlink="http://www.w3.org/1999/xlink">
    <!-- Generator: Sketch 46.2 (44496) - http://www.bohemiancoding.com/sketch -->
    <title>Group Copy</title>
    <desc>Created with Sketch.</desc>
    <defs></defs>
    <g id="Page-1" stroke="none" stroke-width="1" fill="none" fill-rule="evenodd">
        <g id="Home-Screen-Copy-4" transform="translate(-308.000000, -618.000000)" fill-rule="nonzero" fill="#E16601">
            <g id="Group-Copy" transform="translate(308.000000, 618.000000)">
                <path d="M47.3712924,38.1472358 L41.6969384,34.5181817 C41.2506409,34.2635112 40.6768298,34.3271788 40.3580459,34.7728521 C40.1030187,35.2185254 40.1667755,35.791534 40.613073,36.1098721 L46.2236703,39.7389262 C46.6699678,39.9935967 47.2437788,39.929929 47.5625628,39.4842557 C47.8813467,39.0385824 47.7538331,38.4655739 47.3712924,38.1472358 Z" id="Shape"></path>
                <path d="M50.6866453,23.7583545 L43.9921827,24.013025 C43.4821284,24.013025 43.0358309,24.4586983 43.0995877,25.0317068 C43.0995877,25.5410478 43.5458852,25.9867211 44.1196963,25.9230535 L50.8141589,25.668383 C51.3242132,25.668383 51.7705107,25.2227097 51.7067539,24.6497011 C51.7067539,24.1403602 51.2604564,23.6946869 50.6866453,23.7583545 Z" id="Shape"></path>
                <path d="M47.3075356,30.9527952 L44.5659938,30.1887838 C44.1834531,30.0614485 43.8009124,30.316119 43.6733988,30.6981247 C43.5458852,31.0801304 43.8009124,31.4621361 44.1834531,31.5894713 L46.9249949,32.3534827 C47.3075356,32.4808179 47.6900763,32.2261475 47.8175899,31.8441418 C47.9451035,31.4621361 47.6900763,31.0801304 47.3075356,30.9527952 Z" id="Shape"></path>
                <path d="M43.8009124,18.9196157 C43.4183716,19.0469509 43.2271013,19.4289566 43.3546149,19.8109623 C43.4821284,20.192968 43.8646692,20.3839709 44.2472099,20.2566356 L46.9249949,19.3016214 C47.3075356,19.1742862 47.498806,18.7922805 47.3712924,18.4102748 C47.2437788,18.0282691 46.8612381,17.8372662 46.4786974,17.9646014 L43.8009124,18.9196157 Z" id="Shape"></path>
                <path d="M22.3786321,42.1582956 C21.8685778,42.0309604 21.3585235,42.3492985 21.2310099,42.8586394 L19.7646038,49.3527362 C19.6370903,49.8620772 19.9558742,50.3714181 20.4659285,50.4987533 C20.9759828,50.6260886 21.4860371,50.3077505 21.6135506,49.7984096 L23.0799567,43.3043127 C23.2074703,42.7313042 22.8886864,42.2219632 22.3786321,42.1582956 Z" id="Shape"></path>
                <path d="M29.9019329,9.05113517 C30.4119872,9.1784704 30.9220415,8.86013232 31.0495551,8.35079139 L32.5159611,1.85669454 C32.6434747,1.34735361 32.3246908,0.838012678 31.8146365,0.710677446 C31.3045822,0.583342213 30.7945279,0.901680295 30.6670143,1.41102122 L29.2006082,7.90511808 C29.0730947,8.47812663 29.3918786,8.98746756 29.9019329,9.05113517 Z" id="Shape"></path>
                <path d="M33.7910969,41.8399575 C33.5998265,41.3306166 33.0260154,41.1396137 32.5159611,41.3306166 C32.0059069,41.5216194 31.8146365,42.094628 32.0059069,42.6039689 L34.5561783,48.7797277 C34.7474487,49.2890686 35.3212598,49.4800715 35.831314,49.2890686 C36.3413683,49.0980658 36.5326387,48.5250572 36.3413683,48.0157163 L33.7910969,41.8399575 Z" id="Shape"></path>
                <path d="M18.4894681,9.36947325 C18.6807385,9.87881418 19.2545495,10.069817 19.7646038,9.87881418 C20.2746581,9.68781133 20.4659285,9.11480279 20.2746581,8.60546186 L17.7243867,2.42970308 C17.5331163,1.92036215 16.9593052,1.72935931 16.4492509,1.92036215 C15.9391966,2.111365 15.7479263,2.68437355 15.9391966,3.19371448 L18.4894681,9.36947325 Z" id="Shape"></path>
                <path d="M4.90927256,13.062195 L10.5198698,16.6912491 C10.9661673,16.9459196 11.5399784,16.882252 11.8587623,16.4365787 C12.1137894,15.9909053 12.0500327,15.4178968 11.6037352,15.0995587 L5.99313794,11.4705046 C5.54684043,11.2158341 4.97302935,11.2795017 4.65424542,11.7251751 C4.39921827,12.1708484 4.52673185,12.7438569 4.90927256,13.062195 Z" id="Shape"></path>
                <path d="M9.18097726,26.2413916 C9.18097726,25.7320506 8.73467976,25.2863773 8.16086868,25.3500449 L1.46640609,25.6047154 C0.956351798,25.6047154 0.510054292,26.0503887 0.573811079,26.6233972 C0.573811079,27.1327382 1.02010858,27.5784115 1.59391966,27.5147439 L8.28838225,27.1964058 C8.79843654,27.1964058 9.18097726,26.7507325 9.18097726,26.2413916 Z" id="Shape"></path>
                <path d="M39.6567212,15.3542292 C39.9755052,15.7999025 40.5493162,15.8635701 40.9956138,15.545232 L46.3511838,11.5341722 C46.7974813,11.2158341 46.8612381,10.6428256 46.5424542,10.1971523 C46.2236703,9.75147895 45.6498592,9.68781133 45.2035617,10.0061494 L39.8479916,14.0172092 C39.4654509,14.3355473 39.3379373,14.9722235 39.6567212,15.3542292 Z" id="Shape"></path>
                <path d="M11.2849512,35.6641988 L5.92938115,39.6752586 C5.48308364,39.9935967 5.41932686,40.5666052 5.73811079,41.0122785 C6.05689472,41.4579518 6.6307058,41.5216194 7.07700331,41.2032814 L12.4325734,37.1922215 C12.8788709,36.8738835 12.9426277,36.3008749 12.6238437,35.8552016 C12.3050598,35.4095283 11.6674919,35.3458607 11.2849512,35.6641988 Z" id="Shape"></path>
                <path d="M24.9926603,7.77778285 C25.375201,7.77778285 25.693985,7.39577715 25.6302282,7.01377145 L25.4389578,4.14872872 C25.4389578,3.76672302 25.0564171,3.44838494 24.6738764,3.51205256 C24.2913357,3.51205256 23.9725517,3.89405826 24.0363085,4.27606395 L24.2275789,7.14110668 C24.2275789,7.52311238 24.5463628,7.77778285 24.9926603,7.77778285 Z" id="Shape"></path>
                <path d="M27.6066886,43.749986 C27.2241479,43.749986 26.9053639,44.1319917 26.9691207,44.5139974 L27.1603911,47.3790401 C27.1603911,47.7610458 27.5429318,48.0793839 27.9254725,48.0157163 C28.3080132,48.0157163 28.6267972,47.6337106 28.5630404,47.2517049 L28.37177,44.3866622 C28.3080132,44.0046565 27.9892293,43.749986 27.6066886,43.749986 Z" id="Shape"></path>
                <path d="M13.8352227,11.6615074 C14.0902498,11.9798455 14.5365473,12.0435131 14.8553313,11.7888427 C15.1741152,11.5341722 15.237872,11.0884989 14.9828448,10.7701608 L13.1976548,8.54179424 C12.9426277,8.22345616 12.4963302,8.15978854 12.1775462,8.41445901 C11.8587623,8.66912947 11.7950055,9.11480279 12.0500327,9.43314087 L13.8352227,11.6615074 Z" id="Shape"></path>
                <path d="M38.7003694,39.8662614 C38.4453423,39.5479233 37.9990448,39.4842557 37.6802609,39.7389262 C37.3614769,39.9935967 37.2977201,40.43927 37.5527473,40.7576081 L39.3379373,42.9859746 C39.5929645,43.3043127 40.039262,43.3679803 40.3580459,43.1133099 C40.6768298,42.8586394 40.7405866,42.4129661 40.4855595,42.094628 L38.7003694,39.8662614 Z" id="Shape"></path>
                <path d="M5.674354,19.1742862 C5.29181328,19.0469509 4.90927256,19.3016214 4.78175899,19.6836271 C4.65424542,20.0656328 4.90927256,20.4476385 5.29181328,20.5749737 L8.03335511,21.3389851 C8.41589583,21.4663203 8.79843654,21.2116499 8.92595012,20.8296442 C9.05346369,20.4476385 8.79843654,20.0656328 8.41589583,19.9382975 L5.674354,19.1742862 Z" id="Shape"></path>
                <path d="M6.05689472,33.5631674 L8.73467976,32.6081532 C9.11722048,32.4808179 9.30849084,32.0988122 9.18097726,31.7168065 C9.05346369,31.3348008 8.67092297,31.143798 8.28838225,31.2711332 L5.61059722,32.2261475 C5.2280565,32.3534827 5.03678614,32.7354884 5.16429971,33.1174941 C5.29181328,33.4994998 5.674354,33.6905027 6.05689472,33.5631674 Z" id="Shape"></path>
                <path d="M14.7278177,40.5666052 L13.0701412,42.8586394 C12.8151141,43.1769775 12.8788709,43.6226508 13.2614116,43.8773212 C13.5801955,44.1319917 14.026493,44.0683241 14.2815202,43.6863184 L15.9391966,41.3942842 C16.1942238,41.0759461 16.130467,40.6302728 15.7479263,40.3756024 C15.3653856,40.1845995 14.9190881,40.2482671 14.7278177,40.5666052 Z" id="Shape"></path>
                <path d="M37.8715312,10.9611637 L39.5292077,8.66912947 C39.7842348,8.35079139 39.720478,7.90511808 39.3379373,7.65044761 C38.9553966,7.39577715 38.5728559,7.45944477 38.3178287,7.84145046 L36.6601523,10.1334846 C36.4051251,10.4518227 36.4688819,10.897496 36.8514226,11.1521665 C37.1702066,11.3431694 37.6165041,11.2795017 37.8715312,10.9611637 Z" id="Shape"></path>
                <path d="M42.1432359,25.9230535 C42.1432359,17.0732548 34.938719,9.9424818 26.1402825,9.9424818 C17.2780892,9.9424818 10.1373291,17.1369224 10.1373291,25.9230535 C10.1373291,34.7728521 17.3418459,41.9036251 26.1402825,41.9036251 C35.0024758,41.9036251 42.1432359,34.7091845 42.1432359,25.9230535 Z" id="Shape"></path>
            </g>
        </g>
    </g>
</svg>