<?xml version="1.0" encoding="UTF-8"?>
<svg width="41px" height="45px" viewBox="0 0 41 45" version="1.1" xmlns="http://www.w3.org/2000/svg" xmlns:xlink="http://www.w3.org/1999/xlink">
    <!-- Generator: Sketch 46.2 (44496) - http://www.bohemiancoding.com/sketch -->
    <title>Group 7</title>
    <desc>Created with Sketch.</desc>
    <defs></defs>
    <g id="Page-1" stroke="none" stroke-width="1" fill="none" fill-rule="evenodd">
        <g id="Home-Screen-Copy-4" transform="translate(-36.000000, -617.000000)">
            <g id="Bitmap" transform="translate(0.000000, 158.000000)">
                <g id="Group-7" transform="translate(36.000000, 459.000000)">
                    <path d="M13.5365854,20.25 L9.02439024,20.25 L9.02439024,24.75 L13.5365854,24.75 L13.5365854,20.25 Z M22.5609756,20.25 L18.0487805,20.25 L18.0487805,24.75 L22.5609756,24.75 L22.5609756,20.25 Z M31.5853659,20.25 L27.0731707,20.25 L27.0731707,24.75 L31.5853659,24.75 L31.5853659,20.25 Z M36.097561,4.5 L33.8414634,4.5 L33.8414634,0 L29.3292683,0 L29.3292683,4.5 L11.2804878,4.5 L11.2804878,0 L6.76829268,0 L6.76829268,4.5 L4.51219512,4.5 C2.00792683,4.5 0.0225609756,6.525 0.0225609756,9 L0,40.5 C0,42.975 2.00792683,45 4.51219512,45 L36.097561,45 C38.5792683,45 40.6097561,42.975 40.6097561,40.5 L40.6097561,9 C40.6097561,6.525 38.5792683,4.5 36.097561,4.5 Z M36.097561,40.5 L4.51219512,40.5 L4.51219512,15.75 L36.097561,15.75 L36.097561,40.5 Z" id="Shape" fill="#E16601" fill-rule="nonzero"></path>
                    <rect id="Rectangle-3" fill="#E16601" x="3.84146341" y="14.2682927" width="34.0243902" height="27.4390244"></rect>
                    <rect id="Rectangle-4" fill="#FFFFFF" x="8.23170732" y="17.5609756" width="5.48780488" height="5.48780488"></rect>
                    <rect id="Rectangle-4" fill="#FFFFFF" x="17.0121951" y="17.5609756" width="5.48780488" height="5.48780488"></rect>
                    <rect id="Rectangle-4" fill="#FFFFFF" x="26.8902439" y="17.5609756" width="5.48780488" height="5.48780488"></rect>
                    <rect id="Rectangle-4-Copy" fill="#FFFFFF" x="8.23170732" y="27.9878049" width="5.48780488" height="5.48780488"></rect>
                    <rect id="Rectangle-4-Copy-2" fill="#FFFFFF" x="17.0121951" y="27.9878049" width="5.48780488" height="5.48780488"></rect>
                    <rect id="Rectangle-4-Copy-3" fill="#FFFFFF" x="26.8902439" y="27.9878049" width="5.48780488" height="5.48780488"></rect>
                </g>
            </g>
        </g>
    </g>
</svg>