<?xml version="1.0" encoding="UTF-8" standalone="no"?>
<svg width="326px" height="56px" viewBox="0 0 326 56" version="1.1" xmlns="http://www.w3.org/2000/svg" xmlns:xlink="http://www.w3.org/1999/xlink" xmlns:sketch="http://www.bohemiancoding.com/sketch/ns">
    <!-- Generator: Sketch 3.3.1 (12005) - http://www.bohemiancoding.com/sketch -->
    <title>logo + travel d’ globe copy 3</title>
    <desc>Created with Sketch.</desc>
    <defs>
        <linearGradient x1="50%" y1="32.9089337%" x2="50%" y2="86.9310411%" id="linearGradient-1">
            <stop stop-color="#ea2525" stop-opacity="0.749320652" offset="0%"></stop>
            <stop stop-color="#FFFFFF" offset="100%"></stop>
        </linearGradient>
    </defs>
    <g id="Welcome" stroke="none" stroke-width="1" fill="none" fill-rule="evenodd" sketch:type="MSPage">
        <g id="Desktop-Portrait" sketch:type="MSArtboardGroup" transform="translate(-139.000000, -186.000000)">
            <g id="logo-+-travel-d’-globe-copy-3" sketch:type="MSLayerGroup" transform="translate(139.000000, 182.000000)">
                <g id="Group" transform="translate(240.302910, 0.000000)" sketch:type="MSShapeGroup">
                    <path d="M8.01696022,15.2213473 L7.94780625,13.2808989 C7.94780625,13.2808989 1.12582539,14.3238474 0.101878212,20.7618817 C-0.893440451,27.199916 5.73202532,33.9226808 5.73202532,33.9226808 C7.30265835,35.8195963 8.79516088,37.0575219 8.79516088,37.0575219 L8.74803645,35.7352186 L5.27402635,31.9004285 C5.27402635,31.9004285 2.13749262,28.0343172 1.6100331,23.3058589 C1.08376899,18.588117 7.26194218,15.8856141 8.01696022,15.2213473 Z" id="Path-36-Copy" fill="url(#linearGradient-1)"></path>
                    <g id="earth107-copy" transform="translate(2.967400, 23.134112)">
                        <g id="Group">
                            <path d="M13.4410036,17.6253065 L13.5712787,17.9829071 L14.0428054,17.8038142 L14.0946849,17.3104307 L13.7148119,17.2331749 L13.4410036,17.6253065 Z" id="Shape" fill="#000000"></path>
                            <rect id="Rectangle-path" fill="#000000" x="19.8214149" y="20.4082703" width="0.24902144" height="0.161538462"></rect>
                            <path d="M14.0501124,1 C6.30335519,1 0.000576438518,7.39993874 0.000576438518,15.2653961 C0.000576438518,23.1302683 6.30335519,29.5307923 14.0501124,29.5307923 C21.7968697,29.5307923 28.0996484,23.1302683 28.0996484,15.2653961 C28.0996484,7.39993874 21.7968697,1 14.0501124,1 L14.0501124,1 Z M14.0501124,1.67608895 C18.572849,1.67608895 22.5554628,4.05345989 24.8583346,7.6394155 L23.5728767,7.08691965 L18.7475099,6.83408256 L18.296735,6.60231523 L17.5796455,6.49404009 L17.0406755,6.47531142 L16.5518556,6.97630342 L16.346067,6.95991583 L15.6964208,6.47062925 L13.782645,6.47062925 L12.8943532,5.93276517 L11.1166168,6.04689302 L9.76544493,6.66025706 L9.77639726,7.37136137 L9.36020865,7.49777991 L9.26682561,6.78609034 L9.11234009,6.53910596 L8.64427201,6.42263702 L8.53590157,6.84929961 L8.67539969,7.1969506 L7.01525676,7.08691965 L6.2226538,7.46090784 L6.10275459,7.1079894 L5.90503617,7.1606638 L5.76035011,7.54986903 L5.34473794,7.87937662 L4.33193546,7.85011307 L4.28639682,7.62361318 L5.34473794,7.57620623 L5.56205526,7.38716369 L4.28639682,6.78609034 L3.82697532,6.80013684 C6.18691461,3.68766549 9.89053209,1.67608895 14.0501124,1.67608895 L14.0501124,1.67608895 Z M7.37322508,11.8954055 L7.35304973,11.406119 L7.4573851,11.1638167 L7.87703234,11.1269447 L8.23500066,11.2791151 L8.25114094,11.5319522 L7.74214573,11.5032739 L7.716206,11.7373824 L8.35432344,12.1693124 L8.35432344,12.4853587 L8.62986105,12.6913741 L8.62986105,12.9126066 L8.48921005,13.04956 L8.16236941,13.0220523 L8.09953761,12.9225562 L7.58593089,12.8856841 L7.62224652,12.7165408 L7.89317262,12.4789208 L7.89317262,12.2805139 L7.37322508,11.8954055 L7.37322508,11.8954055 Z M4.34865218,14.1083153 L3.74166242,13.6500481 L3.10354498,13.7126721 L3.10354498,14.1083153 L2.90063862,14.1083153 L2.6833213,13.9502921 L1.57771222,13.6658504 L1.57771222,12.9389438 L1.35808915,12.9559167 C1.41803875,12.6129478 1.48951713,12.2740759 1.57540647,11.9410567 L2.44352288,12.5362773 L2.3242001,12.6983974 L1.88495395,12.6744013 L2.05442688,12.9172888 L2.3242001,12.9781569 L2.64181773,12.8441299 L2.63605334,12.4566805 L2.77670434,12.3846921 L2.66314595,12.263541 L2.01349974,11.8954055 L1.8422975,11.406119 L2.38299683,11.406119 L2.55535195,11.5799445 L3.02169071,11.9867078 L3.04128962,12.479506 L3.52376866,13.0021531 L3.70304104,12.2863666 L4.03737538,12.1014209 L4.10020718,12.686692 L4.42647138,13.0501453 L5.4116048,13.0331724 L5.70270626,13.2555754 L5.70270626,13.7776372 L5.34531437,14.1089006 L4.34865218,14.1083153 L4.34865218,14.1083153 Z M2.51096618,9.54203072 L2.51154262,9.42614705 C2.66545171,9.11478286 2.82858381,8.80868611 3.00497399,8.5119537 L3.00497399,8.75484118 L3.35602505,8.92105815 L3.37850615,9.26051535 L2.88449834,10.0067359 L2.24465159,10.0008832 C2.30575407,9.86041816 2.36685655,9.71995311 2.43257054,9.58124388 L2.51096618,9.54203072 L2.51096618,9.54203072 Z M5.52804538,17.4562271 L4.72045502,17.4228666 L4.47892728,17.4562271 L4.47892728,16.896708 L4.65935254,16.6901073 L4.85534163,16.6286538 L5.28363545,16.5783205 L5.37759493,16.4290764 L5.55283224,16.5174523 L5.5776191,17.0272234 L6.04626361,17.2232892 L6.08776718,17.4556418 L5.52804538,17.4562271 L5.52804538,17.4562271 Z M5.17872364,24.5027288 L5.51075223,23.9022408 L5.93616385,23.8068416 L5.93616385,23.3011674 L6.21631297,22.9640513 L6.80773889,22.142916 L6.68322817,20.890436 L6.4232544,20.4251456 L7.58881308,19.2955725 L8.87254166,17.4320695 L8.62294379,17.3156006 L7.28964149,17.6012128 L6.94666058,17.4273873 L5.54533854,14.7480166 L5.64448596,14.6315476 L7.03254992,16.3440507 L7.06655979,16.8737209 L7.38821248,17.2014727 L8.04189376,17.1581627 L9.40632373,16.1544228 L9.83404111,15.8717369 L9.82597097,15.5235007 L9.37058454,15.4626325 C9.37058454,15.4626325 7.77269697,14.6976832 7.77269697,14.6637375 C7.77269697,14.6297918 7.78249643,14.0076487 7.78249643,14.0076487 L8.1352768,14.0076487 L8.18715627,14.4606485 L8.9284562,14.8931638 L9.77466794,14.934718 L11.6123539,15.2396442 L11.833909,15.3885849 L11.5416667,15.4874777 L11.9800301,16.4136979 L12.7591447,18.0091879 L13.1487614,18.2532074 L13.5347764,17.7188523 C13.5347764,17.7188523 13.6959269,16.7959457 13.8792481,16.4464731 C13.8678204,16.0970005 14.0161026,15.761706 14.0161026,15.761706 L14.5216391,15.5697371 L15.4151188,15.6563572 L16.5345624,16.6682908 L16.5345624,18.1221041 L18.0137037,19.5589444 L18.0915229,19.3072779 L16.8925308,17.5684377 L17.0176179,17.0621782 L17.6522767,17.7914259 L18.0039042,17.828298 L18.4696665,17.5145927 L18.3930002,17.0405232 L17.6251841,16.4136979 L17.5929036,15.8442292 L17.8125266,15.5433999 L18.2016226,15.6704037 L18.1693421,15.9390431 L18.3930002,16.2872794 L18.5901422,16.1450585 L18.4817718,15.7341982 L19.5712406,15.338555 L20.0491081,14.9335475 L19.9759004,14.2013734 L19.0270826,13.1894398 L19.0120952,12.3677193 L19.4323189,12.3677193 L20.7396814,13.3796529 L21.1091785,13.2789863 L20.8647686,12.9529903 L20.1643958,12.5210603 L20.2058994,11.8784327 L21.0353944,11.8796032 L21.1028377,11.0842199 L20.7863729,10.6604837 L20.9725626,10.4550535 L21.376646,10.8664991 L21.5069211,10.6920883 L20.9887029,10.0916002 L19.6969041,9.93357704 L19.5257019,9.58592605 L19.8992341,9.04864724 L20.194947,9.26929442 L21.0815095,9.34889128 L22.2026824,8.59038002 L22.388872,8.82682952 L22.1386977,9.22247273 L22.1386977,9.61811595 L23.1659111,10.4708558 L23.4933282,10.2970304 L23.3682411,9.72756164 L22.6384699,9.03401546 L23.6022751,8.97080619 L23.6022751,8.68636447 L24.0697667,8.59213583 L23.7117984,8.34163983 L23.7273623,8.14908566 L24.7078842,8.30944992 L24.8773571,8.16430271 C26.1841432,10.2109955 26.9461949,12.6480641 26.9461949,15.2642256 C26.9461949,17.9582282 26.1414868,20.4626029 24.7626458,22.5449972 L24.7453527,22.1552067 L24.3758556,21.5137497 L24.0444034,21.4979474 L23.9089404,22.6614662 L23.274858,22.613474 L23.0978914,22.5051988 L23.0754103,22.0440052 L23.411474,22.1130672 L23.6945053,21.8327224 L23.092127,21.4645869 L22.3836841,21.4645869 L21.8746889,22.1985168 L21.667171,22.1985168 L21.667171,21.9667495 L21.057299,22.0135711 L20.0917645,23.1290977 L19.5804636,23.1367063 L19.0097894,23.5370316 L18.9688623,25.2647517 L18.6258814,25.6018678 L18.6258814,25.9067941 L20.2854479,25.3273757 L21.6320083,25.2723603 L21.8245387,25.7013639 C19.6605885,27.3676306 16.9663149,28.3573239 14.0489596,28.3573239 C10.5528599,28.3602502 7.37841303,26.9368711 5.05306005,24.6344148 L5.17872364,24.5027288 Z" id="Shape" fill="#ea2525"></path>
                        </g>
                    </g>
                    <g id="passenger1" transform="translate(20.905886, 9.788735) rotate(-21.000000) translate(-20.905886, -9.788735) translate(10.265129, 3.714747)" fill="#ea2525">
                        <path d="M18.621325,4.85919036 L13.3009464,4.85919036 L9.31066248,-4.61852778e-14 L7.98056784,-4.61852778e-14 L9.31066248,4.85919036 L2.66018928,4.85919036 L1.33009464,2.42959518 L-1.86517468e-13,2.42959518 L-1.86517468e-13,6.07398796 L1.33009464,7.28878555 L9.31066248,7.28878555 L7.98056784,12.1479759 L9.31066248,12.1479759 L13.3009464,7.28878555 L18.621325,7.28878555 C21.2815142,7.28878555 21.2815142,6.07398796 21.2815142,6.07398796 C21.2815142,4.85919036 18.621325,4.85919036 18.621325,4.85919036 L18.621325,4.85919036 Z" id="Shape"></path>
                    </g>
                </g>
                <path d="M9.12093863,21.6427997 C9.12093863,22.7182406 9.13074599,23.7837077 9.15036101,24.8392331 C9.16997603,25.8947584 9.17978339,26.9602255 9.17978339,28.0356664 L16.4765343,27.1394702 L16.4765343,30.2462843 L9.17978339,30.4852696 L9.17978339,42.135821 C9.17978339,43.2112619 9.21901284,44.1472798 9.29747292,44.9439027 C9.375933,45.7405256 9.53285081,46.3977296 9.76823105,46.9155345 C10.0036113,47.4333394 10.3370616,47.8216872 10.7685921,48.0805896 C11.2001225,48.3394921 11.7885643,48.4689413 12.533935,48.4689413 C13.1223856,48.4291102 13.7892863,48.2996609 14.534657,48.0805896 C15.2800278,47.8615183 16.1038463,47.4532552 17.0061372,46.8557881 L17.5357401,47.6922379 C16.8295994,48.7278477 15.8880925,49.6041197 14.7111913,50.3210803 C13.5342901,51.0380409 11.9062679,51.3965158 9.82707581,51.3965158 C8.80709478,51.3965158 7.94404685,51.2770242 7.23790614,51.0380373 C6.53176542,50.7990504 5.96293838,50.3808297 5.53140794,49.7833625 C5.09987751,49.1858954 4.7860419,48.4091997 4.5898917,47.4532522 C4.3937415,46.4973048 4.29566787,45.3023884 4.29566787,43.8684672 L4.29566787,30.6047624 C3.74644731,30.6047624 3.21684972,30.61472 2.70685921,30.6346356 C2.19686869,30.6545512 1.6672711,30.6645088 1.11805054,30.6645088 C0.568829986,30.6645088 0.294223827,30.4753137 0.294223827,30.0969178 C0.294223827,29.718522 0.54921526,29.4098352 1.05920578,29.1708484 C1.92226665,28.8123681 2.67743359,28.4339779 3.32472924,28.0356664 C3.9720249,27.637355 4.51142985,27.2191342 4.94296029,26.7809917 C5.37449073,26.3428491 5.91389568,25.685645 6.56119134,24.8093599 C7.20848699,23.9330747 7.74789195,22.8775652 8.17942238,21.6427997 L9.12093863,21.6427997 Z M20.5999985,49.7236161 L22.066787,49.1858984 C22.8513878,48.9867426 23.3515633,48.6880135 23.5673285,48.2897021 C23.7830937,47.8913906 23.8909747,47.1744408 23.8909747,46.138831 L23.8909747,34.6675188 C23.8909747,33.8708959 23.7242496,33.2833954 23.3907942,32.9049995 C23.0573389,32.5266036 22.3217867,32.2378321 21.1841155,32.0386764 L19.8306859,31.7996908 L19.8895307,30.7840016 C21.4195022,30.2661968 22.8513772,29.6089927 24.1851986,28.8123699 C25.5190199,28.015747 26.6174445,26.8208306 27.4805054,25.2275848 L28.5397112,25.2275848 C28.6181713,26.3428568 28.6672081,27.4680698 28.6868231,28.6032574 C28.7064381,29.738445 28.7358602,31.0030649 28.7750903,32.3971549 C29.1281606,31.7200255 29.5302625,31.0628215 29.9814079,30.4255231 C30.4325534,29.7882248 30.9915731,29.1310208 31.6584838,28.4538914 C32.3253944,27.7767619 32.9530656,27.2987953 33.5415162,27.0199773 C34.1299668,26.7411593 34.6791792,26.6017524 35.1891697,26.6017524 C36.1699207,26.6017524 36.9741244,26.8905239 37.6018051,27.4680755 C38.2294857,28.0456271 38.5433213,28.8521956 38.5433213,29.8878054 C38.5433213,30.8437528 38.2981372,31.6005332 37.8077617,32.1581693 C37.3173862,32.7158053 36.6602929,32.9946191 35.8364621,32.9946191 C35.4441617,32.9946191 35.0714819,32.9050004 34.7184116,32.7257602 C34.3653412,32.5465201 34.0318909,32.3374097 33.7180505,32.0984228 C33.4042102,31.859436 33.100182,31.6503256 32.8059567,31.4710855 C32.5117314,31.2918453 32.2469326,31.2022266 32.0115523,31.2022266 C31.658482,31.2022266 31.2956096,31.3715064 30.9229242,31.7100711 C30.5502388,32.0486359 30.2167885,32.4668566 29.9225632,32.9647459 C29.6283379,33.4626352 29.3831538,33.99039 29.1870036,34.548026 C28.9908534,35.105662 28.8731651,35.6234591 28.833935,36.1014328 C28.794705,36.420082 28.7750903,36.7287687 28.7750903,37.0275023 L28.7750903,37.834079 L28.7750903,46.2583239 C28.7750903,47.2541025 28.9418154,47.9212642 29.2752708,48.2598289 C29.6087261,48.5983936 30.3246636,48.8672498 31.4231047,49.0664055 L33.8899994,49.7236161 L33.8899994,50.6800003 C33.9141949,50.5998965 32.8157702,50.5401507 31.599639,50.5003196 C30.3835078,50.4604884 29.14778,50.4405731 27.8924188,50.4405731 L26.8920578,50.4405731 C25.5190064,50.4405731 24.2244345,50.4604884 23.0083032,50.5003196 C21.792172,50.5401507 20.6545179,50.5998965 20.5999985,50.6795588 L20.5999985,49.7236161 Z M50.1357401,51.2172766 C48.5273084,51.2172766 47.1346629,50.9285051 45.9577617,50.3509535 C44.7808605,49.7734019 43.8001243,48.9867486 43.0155235,47.99097 C42.2309227,46.9951914 41.6522883,45.8201903 41.2796029,44.4659313 C40.9069175,43.1116724 40.7205776,41.6578575 40.7205776,40.1044428 C40.7205776,37.9933922 41.054028,36.1313141 41.7209386,34.5181528 C42.3878493,32.9049914 43.2803193,31.5407952 44.3983755,30.4255231 C45.5164316,29.3102511 46.7913887,28.4738096 48.2232852,27.9161736 C49.6551816,27.3585376 51.1360934,27.0797237 52.666065,27.0797237 C53.5291259,27.0797237 54.3137149,27.1593848 55.0198556,27.3187094 C55.7259963,27.478034 56.3536675,27.6572715 56.9028881,27.8564272 C57.5305687,28.0555829 58.079781,28.2945662 58.5505415,28.5733842 L62.0812274,26.6614988 L62.6108303,26.8407381 L62.6108303,45.421874 C62.6108303,47.0151198 63.277731,47.7719002 64.6115523,47.6922379 C64.9253927,47.6922379 65.1901915,47.6424497 65.4059567,47.5428719 C65.6217219,47.443294 65.8080618,47.33376 65.9649819,47.2142666 C66.1219021,47.054942 66.2788199,46.9155351 66.4357401,46.7960416 L66.965343,47.3337594 C66.6515026,48.0905512 66.2788229,48.7477552 65.8472924,49.3053912 C65.454992,49.7833649 64.9450092,50.2215009 64.3173285,50.6198124 C63.6896479,51.0181238 62.9246736,51.2172766 62.0223827,51.2172766 C60.5708712,51.2172766 59.5410981,50.7492676 58.9330325,49.8132357 C58.3249669,48.8772039 58.0209386,47.6524145 58.0209386,46.138831 L58.0209386,44.5854242 C57.7855584,45.4218782 57.4521081,46.2384044 57.0205776,47.0350273 C56.5890472,47.8316502 56.0594496,48.5386424 55.431769,49.1560252 C54.8040883,49.7734079 54.0489214,50.2712897 53.1662455,50.6496856 C52.2835696,51.0280815 51.2734112,51.2172766 50.1357401,51.2172766 L50.1357401,51.2172766 Z M58.0797834,37.834079 C58.0797834,36.6391446 57.9915171,35.5139317 57.8149819,34.4584063 C57.6384468,33.402881 57.3344185,32.4867784 56.9028881,31.7100711 C56.4713576,30.9333638 55.8829159,30.3159903 55.1375451,29.8579322 C54.3921744,29.399874 53.4506675,29.1708484 52.3129964,29.1708484 C51.5676256,29.1708484 50.792844,29.3401282 49.9886282,29.6786929 C49.1844123,30.0172576 48.4390528,30.55497 47.7525271,31.2918462 C47.0660014,32.0287224 46.5069817,33.0045708 46.0754513,34.2194207 C45.6439208,35.4342706 45.4281588,36.8980432 45.4281588,38.6107824 C45.4281588,39.885379 45.5654619,41.1002107 45.8400722,42.2553139 C46.1146825,43.4104171 46.5265917,44.426096 47.0758123,45.3023812 C47.6250328,46.1786664 48.3017409,46.8757009 49.1059567,47.3935058 C49.9101725,47.9113107 50.841872,48.1702093 51.901083,48.1702093 C52.8033739,48.1702093 53.6271924,47.9212683 54.3725632,47.423379 C55.1179339,46.9254897 55.7652199,46.2384128 56.3144404,45.3621276 C56.863661,44.4858424 57.295185,43.4602059 57.6090253,42.2851871 C57.9228656,41.1101683 58.0797834,39.8455485 58.0797834,38.4912896 L58.0797834,37.834079 Z M82.9122744,51.8744872 L81.7942238,51.8744872 L72.9086643,31.6801979 C72.4379038,30.7242505 72.065224,30.106877 71.7906137,29.828059 C71.5160034,29.549241 71.0844795,29.3500882 70.4960289,29.2305948 L69.4368231,29.1708484 L69.4368231,27.7369343 C70.299884,27.8564278 71.1236889,27.7369343 74.6151625,27.7369343 C76.3805142,27.7369343 77.9300776,27.7269767 79.2638989,27.7070611 C80.5977203,27.6871456 80.6565552,27.8165966 81.2057757,27.7369343 L80.6173285,29.1708484 L79.3227437,29.1708484 C78.616603,29.2903418 77.7339353,29.6089863 77.6750902,30.1267912 C77.6162452,30.6445961 78.1850749,32.078499 78.8519855,33.711576 L83.5595668,45.0633959 L88.267148,33.1141118 C88.6594484,32.1979955 89.287132,29.9375951 87.6787003,29.6488179 L85.9133574,29.1708484 L85.3249093,27.7369343 C85.8348998,27.8564278 87.0706215,27.7369343 90.3267148,27.7369343 C93.5828081,27.7369343 94.4262285,27.8564278 95.3285194,27.7369343 L95.3285198,29.1708484 L93.5043321,29.1708484 C92.8766515,29.2505107 92.4255128,29.4397058 92.1509025,29.7384393 C91.8762922,30.0371729 91.5232272,30.7242499 91.0916968,31.7996908 L82.9122744,51.8744872 Z M103.625632,39.6862177 C103.606017,39.9650357 103.831586,40.5824082 104.243502,41.7773425 C104.655417,42.9722769 105.224244,44.0078711 105.95,44.8841563 C106.675756,45.7604414 107.568226,46.4375607 108.627437,46.9155345 C109.686648,47.3935082 110.863531,47.6324915 112.158123,47.6324915 C113.531174,47.6324915 114.786517,47.3935082 115.924188,46.9155345 C117.061859,46.4375607 118.297587,45.5612887 119.631408,44.2866921 L119.866787,45.4816205 C118.650656,47.274022 117.199166,48.7079216 115.512274,49.7833625 C113.825383,50.8588034 111.687378,51.3965158 109.098195,51.3965158 C107.568223,51.3965158 106.165771,51.0878291 104.890794,50.4704463 C103.615818,49.8530636 102.507586,48.9967068 101.566065,47.9013504 C100.624544,46.8059939 99.8987992,45.5115011 99.3888087,44.0178332 C98.8788181,42.5241653 98.6238267,40.8811552 98.6238267,39.0887537 C98.6238267,37.2963522 98.9082402,35.6334269 99.4770758,34.0999278 C100.045911,32.5664288 100.840308,31.2420631 101.860289,30.1267911 C102.88027,29.011519 104.10619,28.1452046 105.538087,27.5278219 C106.969983,26.9104391 108.548969,26.6017524 110.27509,26.6017524 C113.099653,26.6017524 115.30631,27.4680668 116.895126,29.2007216 C118.483943,30.9333764 119.337184,33.1340141 119.454874,35.8027008 L103.625632,39.6862177 Z M309.58231,39.6862177 C309.562695,39.9650357 309.788265,40.5824082 310.200181,41.7773425 C310.612096,42.9722769 311.180923,44.0078711 311.906679,44.8841563 C312.632434,45.7604414 313.524904,46.4375607 314.584116,46.9155345 C315.643327,47.3935082 316.82021,47.6324915 318.114801,47.6324915 C319.487853,47.6324915 320.743195,47.3935082 321.880866,46.9155345 C323.018538,46.4375607 324.254265,45.5612887 325.588087,44.2866921 L325.823466,45.4816205 C324.607334,47.274022 323.155845,48.7079216 321.468953,49.7833625 C319.782061,50.8588034 317.644056,51.3965158 315.054874,51.3965158 C313.524902,51.3965158 312.122449,51.0878291 310.847473,50.4704463 C309.572497,49.8530636 308.464265,48.9967068 307.522744,47.9013504 C306.581223,46.8059939 305.855478,45.5115011 305.345487,44.0178332 C304.835497,42.5241653 304.580505,40.8811552 304.580505,39.0887537 C304.580505,37.2963522 304.864919,35.6334269 305.433755,34.0999278 C306.00259,32.5664288 306.796986,31.2420631 307.816968,30.1267911 C308.836949,29.011519 310.062869,28.1452046 311.494765,27.5278219 C312.926662,26.9104391 314.505647,26.6017524 316.231769,26.6017524 C319.056332,26.6017524 321.262988,27.4680668 322.851805,29.2007216 C324.440622,30.9333764 325.293862,33.1340141 325.411552,35.8027008 L309.58231,39.6862177 Z M310.053069,36.6988971 C310.053069,36.6988971 319.291694,34.0899711 319.762455,33.8908154 C320.233215,33.6916597 320.370518,33.1539473 320.174368,32.2776621 C319.978218,31.1623901 319.585924,30.1964993 318.997473,29.3799608 C318.409022,28.5634224 317.447901,28.1551593 316.114079,28.1551593 C314.505648,28.1551593 313.191461,28.682914 312.17148,29.7384393 C311.151499,30.7939647 310.445369,32.2776525 310.053069,34.1895475 L310.053069,36.6988971 Z M103.294614,36.7363153 C103.294614,36.7363153 114.560947,34.2006596 115.133135,34.0171488 C115.705322,33.8336379 115.858471,33.3867665 115.592588,32.676521 C115.319859,31.770279 114.810629,30.994955 114.06488,30.3505256 C113.319132,29.7060963 112.127596,29.4124749 110.490239,29.4696527 C108.515778,29.5386024 106.917638,30.0277577 105.69577,30.9371332 C104.473902,31.8465088 103.64957,33.0935725 103.222749,34.6783618 L103.294614,36.7363153 Z M136.107942,50.6198124 C135.166421,50.5799812 134.107226,50.5401507 132.930325,50.5003196 C131.753424,50.4604884 130.566733,50.4405731 129.370217,50.4405731 C128.1737,50.4405731 126.987009,50.4604884 125.810108,50.5003196 C124.633207,50.5401507 123.574012,50.5799812 123.630005,50.6198124 L123.630005,49.424884 L125.927798,48.707927 C126.437788,48.5884336 126.790853,48.4291114 126.987004,48.2299557 C127.183154,48.0308 127.281227,47.6324945 127.281227,47.0350273 L127.281227,17.1618184 C127.281227,16.3253643 127.045851,15.7079909 126.57509,15.3096794 C126.10433,14.911368 125.064749,14.473232 123.456318,13.9952582 L123.456318,12.9795691 C124.201688,12.8202445 125.280498,12.5812613 126.69278,12.2626121 C128.105061,11.9439629 131.047286,9.73334967 132.106498,9.21554479 L132.106498,11.0079373 L132.106498,46.9155345 C132.106498,47.6723262 132.184957,48.1602504 132.341877,48.3793217 C132.498797,48.598393 132.871477,48.7676728 133.459928,48.8871663 L136.107942,49.424884 L136.107942,50.6198124 Z M181.20444,17.8787754 C181.20444,17.1219836 181.155403,16.5046102 181.057328,16.0266364 C180.959253,15.5486627 180.753298,15.1603149 180.439458,14.8615813 C180.125618,14.5628477 179.664672,14.3039491 179.056606,14.0848778 C178.448541,13.8658066 177.634529,13.6168656 176.614548,13.3380476 L176.614548,12.3821049 C177.86991,12.3024426 179.262555,12.1431205 180.792527,11.9041336 C182.322498,11.6651467 185.186264,9.57402509 186.088556,9.21554479 L186.088556,11.0079373 L186.088556,46.138831 C186.088556,46.8557916 186.127785,47.4134193 186.206245,47.8117307 C186.284705,48.2100422 186.461238,48.4988137 186.735848,48.6780538 C187.010458,48.857294 187.41256,48.966828 187.942166,49.0066591 C188.471771,49.0464903 189.187709,49.0863208 190.09,49.1261519 L190.09,50.3210803 C188.599258,50.6397295 187.020273,50.9185433 185.352996,51.1575302 C183.685719,51.396517 182.302881,51.5757545 181.20444,51.6952479 L181.20444,48.4689413 C180.341379,48.9070839 179.546983,49.3053894 178.821227,49.6638697 C178.095471,50.02235 177.389341,50.3310367 176.702816,50.5899392 C176.01629,50.8488416 175.319967,51.0479944 174.613826,51.1874034 C173.907686,51.3268124 173.142711,51.3965158 172.318881,51.3965158 C171.063519,51.3965158 169.857214,51.1575325 168.699927,50.6795588 C167.542641,50.2015851 166.493253,49.3850589 165.551733,48.2299557 C163.707921,45.9994116 162.786029,43.2710191 162.786029,40.0446964 C162.786029,38.0531392 163.119479,36.2308917 163.78639,34.5778992 C164.4533,32.9249067 165.335963,31.5109223 166.434404,30.3359035 C167.532845,29.1608848 168.788188,28.2447822 170.200469,27.5875683 C171.61275,26.9303544 173.06424,26.6017524 174.554982,26.6017524 C175.967263,26.6017524 177.222606,26.7411593 178.321047,27.0199773 C179.419488,27.2987953 180.380609,27.6971008 181.20444,28.2149057 L181.20444,17.8787754 Z M181.20444,46.7960416 L181.20444,36.0416864 C181.20444,35.2052324 181.155403,34.338918 181.057328,33.4427172 C180.959253,32.5465165 180.704262,31.7299903 180.292346,30.9931141 C179.880431,30.2562379 179.262567,29.6587797 178.438736,29.2007216 C177.614905,28.7426634 176.496866,28.5136378 175.084585,28.5136378 C174.064603,28.5136378 173.142711,28.782494 172.318881,29.3202144 C171.49505,29.8579349 170.769305,30.5948 170.141624,31.5308319 C169.513944,32.4668638 169.033383,33.5622038 168.699927,34.8168849 C168.366472,36.0715659 168.199747,37.4357621 168.199747,38.9095145 C168.199747,41.7773569 168.876455,44.0875286 170.229891,45.840099 C171.583328,47.5926693 173.378075,48.4689413 175.614187,48.4689413 C176.830319,48.4689413 177.918936,48.3096192 178.880072,47.99097 C179.841208,47.6723208 180.61599,47.2740154 181.20444,46.7960416 L181.20444,46.7960416 Z M191.952772,20.4478714 C194.581185,18.4961453 195.895372,16.5643637 195.895372,14.6524688 C195.895372,14.0550017 195.816913,13.6766115 195.659993,13.5172869 C195.581533,13.3977934 195.454037,13.32809 195.277502,13.3081744 C195.100966,13.2882588 194.895012,13.2583859 194.659632,13.2185548 C194.424251,13.1787236 194.179067,13.0990625 193.924072,12.9795691 C193.669077,12.8600757 193.423893,12.6410077 193.188512,12.3223585 C192.756982,11.9240471 192.521605,11.3962923 192.482375,10.7390784 C192.443145,10.0818646 192.551026,9.42466054 192.806021,8.76744665 C193.061017,8.11023277 193.463119,7.54264748 194.012339,7.06467374 C194.56156,6.58670001 195.248075,6.34771673 196.071906,6.34771673 C198.778779,6.34771673 200.132195,7.82144697 200.132195,10.7689517 C200.132195,13.1189892 199.55356,15.1603047 198.396274,16.8929595 C197.238988,18.6256143 195.444241,20.3084549 193.011978,21.9415318 L191.952772,20.4478714 Z M209.42852,50.2613339 C207.977008,50.2613339 206.672629,49.9924777 205.515343,49.4547572 C204.358057,48.9170368 203.367513,48.1801717 202.543682,47.2441398 C201.719851,46.3081079 201.09218,45.1828949 200.66065,43.8684672 C200.229119,42.5540394 200.013357,41.1201397 200.013357,39.5667251 C200.013357,37.6548301 200.327193,35.9222014 200.954874,34.3687867 C201.582554,32.8153721 202.425987,31.500964 203.485199,30.4255231 C204.54441,29.3500822 205.77033,28.5235984 207.162996,27.9460468 C208.555663,27.3684952 210.036575,27.0797237 211.605776,27.0797237 C212.704217,27.0797237 213.665339,27.1593848 214.48917,27.3187094 C215.313001,27.478034 215.999516,27.6572715 216.548736,27.8564272 C217.215647,28.0555829 217.764859,28.2945662 218.19639,28.5733842 L221.727076,26.3627667 L222.256679,26.542006 L222.256679,49.1858984 C222.256679,50.6994818 221.962458,52.1035086 221.374007,53.3980208 C220.785557,54.692533 219.971546,55.817746 218.931949,56.7736934 C217.892353,57.7296409 216.646818,58.4864213 215.195307,59.0440573 C213.743795,59.6016933 212.155003,59.8805072 210.428881,59.8805072 C208.271229,59.8805072 206.55494,59.721185 205.279964,59.4025358 C204.004988,59.0838867 203.034059,58.6855812 202.367148,58.2076075 C201.700237,57.7296337 201.268713,57.2118366 201.072563,56.6542006 C200.876413,56.0965646 200.778339,55.5787675 200.778339,55.1007937 C200.778339,54.3838331 200.994101,53.8361631 201.425632,53.4577672 C201.857162,53.0793714 202.406375,52.8901763 203.073285,52.8901763 C203.779426,52.8901763 204.299216,53.0196255 204.632671,53.278528 C204.966127,53.5374304 205.230926,53.8461172 205.427076,54.2045975 C205.623226,54.5630778 205.789951,54.9713409 205.927256,55.429399 C206.064561,55.8874572 206.290131,56.2957203 206.603971,56.6542006 C206.917811,57.0126809 207.388565,57.3213676 208.016245,57.5802701 C208.643926,57.8391725 209.506974,57.9686218 210.605415,57.9686218 C212.841527,57.9686218 214.557816,57.3114178 215.754332,55.99699 C216.950848,54.6825622 217.549097,52.6711196 217.549097,49.9626018 L217.549097,43.0917637 C217.313717,44.0078801 216.980267,44.8941097 216.548736,45.7504793 C216.117206,46.6068489 215.567994,47.3636293 214.901083,48.0208432 C214.234172,48.6780571 213.449583,49.2157695 212.547292,49.6339965 C211.645002,50.0522235 210.605421,50.2613339 209.42852,50.2613339 L209.42852,50.2613339 Z M217.549097,37.5950933 C217.549097,36.5196524 217.460831,35.4741005 217.284296,34.4584063 C217.107761,33.4427122 216.793925,32.5365672 216.34278,31.7399443 C215.891634,30.9433214 215.27377,30.3060327 214.48917,29.828059 C213.704569,29.3500852 212.684603,29.1111019 211.429242,29.1111019 C210.605411,29.1111019 209.811015,29.2803818 209.046029,29.6189465 C208.281043,29.9575112 207.594528,30.485266 206.986462,31.2022266 C206.378396,31.9191872 205.897836,32.855205 205.544765,34.0103082 C205.191695,35.1654114 205.015162,36.5793958 205.015162,38.2523039 C205.015162,39.4472382 205.123043,40.6023241 205.338809,41.7175961 C205.554574,42.8328682 205.897832,43.8087166 206.368592,44.6451706 C206.839353,45.4816246 207.447409,46.1487863 208.19278,46.6466756 C208.938151,47.1445649 209.840428,47.3935058 210.899639,47.3935058 C211.88039,47.3935058 212.77286,47.1346073 213.577076,46.6168024 C214.381292,46.0989975 215.077614,45.4019629 215.666065,44.5256778 C216.254516,43.6493926 216.705654,42.6635866 217.019495,41.5682301 C217.333335,40.4728736 217.509867,39.3277454 217.549097,38.1328111 L217.549097,37.5950933 Z M240.616245,49.9119472 C239.674725,49.8721161 238.615529,49.8322855 237.438628,49.7924544 C236.261727,49.7526232 235.075036,49.732708 233.87852,49.732708 C232.682004,49.732708 231.495313,49.7526232 230.318412,49.7924544 C229.14151,49.8322855 228.082315,49.8721161 228.140015,49.9119472 L228.140015,48.7170189 L230.436101,48.0000618 C230.946092,47.8805684 231.299157,47.7212462 231.495307,47.5220905 C231.691457,47.3229348 231.789531,46.9246293 231.789531,46.3271621 L231.789531,16.4539532 C231.789531,15.6174992 231.554154,15.0001257 231.083394,14.6018142 C230.612633,14.2035028 229.573053,13.7653668 227.964621,13.2873931 L227.964621,12.2717039 C228.709992,12.1123794 229.788802,11.8733961 231.201083,11.5547469 C232.613364,11.2360978 235.32021,9.62294868 236.614802,9.1051438 L236.614801,10.3000722 L236.614801,46.2076693 C236.614801,46.9644611 236.69326,47.4523853 236.850181,47.6714566 C237.007101,47.8905278 237.37978,48.0598077 237.968231,48.1793011 L240.616245,48.7170189 L240.616245,49.9119472 Z M282.042989,9.81300897 L282.04296,11.0079373 L282.04296,28.692877 C283.455242,28.0157476 284.789043,27.4979505 286.044404,27.1394702 C287.299766,26.7809899 288.535493,26.6017524 289.751625,26.6017524 C291.438516,26.6017524 292.94885,26.9004815 294.282671,27.4979487 C295.616493,28.0954158 296.74434,28.9318573 297.666245,30.0072982 C298.588151,31.0827391 299.294282,32.3573166 299.784657,33.831069 C300.275033,35.3048213 300.520217,36.8980432 300.520217,38.6107824 C300.520217,40.6023396 300.216188,42.3847566 299.608123,43.9580868 C299.000057,45.531417 298.156624,46.875698 297.077798,47.99097 C295.998972,49.106242 294.724015,49.9526412 293.252888,50.5301928 C291.781762,51.1077444 290.163547,51.3965158 288.398195,51.3965158 C287.535134,51.3965158 286.701508,51.2869818 285.897292,51.0679105 C285.093077,50.8488392 284.357524,50.6098559 283.690614,50.3509535 C283.023703,50.0920511 282.454876,49.8530678 281.984116,49.6339965 C281.513355,49.4149252 281.16029,49.3053912 280.92491,49.3053912 C280.454149,49.3053912 280.032433,49.5045439 279.659747,49.9028554 C279.287062,50.3011668 278.88496,50.898625 278.45343,51.6952479 L277.1,51.6952479 L277.1,20.4478714 C277.1,19.5715862 277.109807,18.8247634 277.129422,18.2073807 C277.149037,17.5899979 277.050964,17.0423279 276.835199,16.5643542 C276.619433,16.0863805 276.236946,15.6482444 275.687726,15.249933 C275.138505,14.8516216 274.295072,14.4334008 273.157401,13.9952582 L282.042989,9.81300897 Z M282.04296,43.6892279 C282.04296,45.4816294 282.503906,46.8259104 283.425812,47.7221111 C284.347718,48.6183119 285.691327,49.0664055 287.456679,49.0664055 C289.967401,49.0664055 291.860222,48.229964 293.135199,46.557056 C294.410175,44.8841479 295.047653,42.6138067 295.047653,39.7459643 C295.047653,38.272212 294.861314,36.8881005 294.488628,35.5935883 C294.115943,34.2990761 293.586345,33.1639055 292.899819,32.1880425 C292.213294,31.2121794 291.369861,30.4454414 290.369495,29.8878054 C289.369129,29.3301694 288.241282,29.0513555 286.985921,29.0513555 C285.612869,29.0513555 284.445793,29.3002964 283.484657,29.7981858 C282.523521,30.2960751 282.04296,30.8437451 282.04296,31.4412122 L282.04296,43.6892279 Z" id="travel-d’globe" fill="#ea2525" sketch:type="MSShapeGroup"></path>
            </g>
        </g>
    </g>
</svg>